<svg xmlns="http://www.w3.org/2000/svg" xmlns:xlink="http://www.w3.org/1999/xlink" width="520" height="200" viewBox="0 0 520 200">
    <defs>
        <path id="prefix__a" d="M0 0L128.757 0 128.757 23.296 0 23.296z"/>
    </defs>
    <g fill="none" fill-rule="evenodd">
        <g transform="translate(0 29)">
            <circle cx="70" cy="70" r="69" stroke="#E3E3E3" stroke-width="2"/>
            <path fill="#333" d="M54.548 55.32h3.344v-4.464h1.12v13.6h-1.12v-8.112h-3.344V55.32zm7.568-4.768v14.624h-1.12V50.552h1.12zM50.42 61.064v-9.136h1.136v8.112h1.168c1.056 0 2.432-.064 3.856-.32l.128 1.008c-1.472.288-3.168.336-4.528.336h-1.76zm25.224-10.512v14.624h-1.136V50.552h1.136zm-4.032 5.28v1.504c0 2.672-1.344 4.256-3.616 4.256-2.272 0-3.616-1.584-3.616-4.256v-1.52c0-2.672 1.344-4.24 3.616-4.24 2.272 0 3.616 1.584 3.616 4.256zm-1.104 1.312v-1.12c0-2.432-1.008-3.392-2.512-3.392s-2.512.96-2.512 3.392v1.12c0 2.432 1.008 3.408 2.512 3.408s2.512-.976 2.512-3.408zm14.632-5.36V55.8h3.44v-5.248h1.12v14.624h-1.12v-8.352h-3.44v4.464h-6.752v-9.504h1.12v3.584h4.512v-3.584h1.12zm-5.632 4.592v3.888h4.512v-3.888h-4.512zM26.68 86.136h5.104V80.52h1.152v5.616h7.184v.976H26.68v-.976zm10.864-1.872l-1.184-.144c.368-1.968.576-3.728.576-5.872V76.92h-8.56v-.992h9.728v1.728c0 2.688-.176 4.544-.56 6.608zm12.12-9.52v3.344h2.24v-3.536h1.104v8.56h-1.104v-4.016h-2.24v3.984H48.56v-8.336h1.104zM41.44 83.08l-.496-.912c4.032-1.904 4.528-2.432 4.528-4.608v-1.072h-4.144v-.992h5.232v2.208c0 2.752-1.024 3.392-5.12 5.376zm2.048 1.888v-.992h9.52v5.312h-1.12v-4.32h-8.4zm15.304-.752v3.792h8.48V89h-9.616v-4.784h1.136zm2.88-2.192l-.704.736c-.608-.512-1.28-1.136-1.76-1.616-.576-.56-.928-.976-.976-1.136h-.016c-.032.16-.304.56-.768 1.072-.496.544-1.568 1.584-2.272 2.144l-.72-.752c.736-.592 1.696-1.488 2.256-2.144.784-.912.928-1.424.928-2.64V75.32h1.12v2.352c0 1.2.112 1.664.944 2.544.496.512 1.2 1.184 1.968 1.808zm-.992-4.016h2.336v-3.264h1.104V84.6h-1.104v-5.584H60.68v-1.008zm6.272-3.456v10.4h-1.104v-10.4h1.104zm2.664 1.184h6.672v1.008h-5.536v3.232h4.976v1.008h-4.976v3.424H72.8c1.488 0 3.136-.08 4.848-.336l.128 1.008c-1.712.272-3.568.352-5.264.352h-2.896v-9.696zm7.056 4.192h2.96v-5.376h1.12v14.624h-1.12v-8.224h-2.96v-1.024zm15.968.816c-2.56 0-4.592-1.024-4.592-2.624v-.608c0-1.6 2.032-2.624 4.592-2.624 2.56 0 4.592 1.024 4.592 2.624v.608c0 1.6-2.032 2.624-4.592 2.624zm0-4.896c-1.84 0-3.504.72-3.504 1.744v.448c0 1.024 1.664 1.744 3.504 1.744s3.504-.72 3.504-1.744v-.448c0-1.024-1.664-1.744-3.504-1.744zm-6.72 6.24h13.44v.96h-5.984v3.024h-1.12v-3.024H85.92v-.96zm3.136 2.592v3.328h8.624V89h-9.76v-4.32h1.136zm18.632-1.2c2.4 0 4.432 1.04 4.432 2.72v.624c0 1.68-2.032 2.736-4.432 2.736-2.4 0-4.432-1.056-4.432-2.736V86.2c0-1.728 2.032-2.72 4.432-2.72zm-3.712-1.232c-2.256 0-3.568-1.632-3.568-3.088v-.928c0-1.456 1.312-3.088 3.568-3.088 2.256 0 3.568 1.632 3.568 3.088v.928c0 1.456-1.312 3.088-3.568 3.088zm3.712 6.352c1.712 0 3.344-.672 3.344-1.808v-.544c0-1.136-1.632-1.808-3.344-1.808s-3.344.672-3.344 1.808v.544c0 1.136 1.632 1.808 3.344 1.808zm-3.712-12.448c-1.44 0-2.48.944-2.48 2.176v.736c0 1.232 1.04 2.176 2.48 2.176s2.48-.944 2.48-2.176v-.736c0-1.232-1.04-2.176-2.48-2.176zm4.336.4h2.624v-2h1.104v8.608h-1.104v-2.304h-2.624v-.976h2.624v-2.352h-2.624v-.976z"/>
        </g>
        <g transform="translate(161)">
            <g transform="translate(36 88)">
                <mask id="prefix__b" fill="#fff">
                    <use xlink:href="#prefix__a"/>
                </mask>
                <path fill="#E42813" d="M17.884 7.27h-3.08c-1.776.104-3.232.651-4.33 1.637-1.253 1.126-1.89 2.782-1.89 4.925v7.17c0 1.565.646 2.293 2.033 2.293 1.386 0 2.033-.728 2.033-2.293h-.002l.002-7.861c0-1.912 1.959-1.943 2.153-1.943h3.081c.195 0 2.153.031 2.153 1.943l.001 7.86c0 1.566.647 2.294 2.033 2.294s2.033-.728 2.033-2.293v-7.17c0-2.143-.638-3.8-1.89-4.925-1.1-.986-2.556-1.533-4.33-1.637zM3.23 8.055C1.251 8.055.32 9.468.285 10.696l.025.34L1.37 21.722c.067.44.417 1.572 1.858 1.572 1.44 0 1.792-1.133 1.859-1.572l1.06-10.688.025-.339c-.036-1.228-.964-2.641-2.944-2.641zM3.23 0C1.448 0 0 1.422 0 3.17c0 1.746 1.448 3.168 3.23 3.168 1.78 0 3.228-1.422 3.228-3.168C6.458 1.422 5.01 0 3.229 0zm53.385 17.424c0 1.91-1.961 1.944-2.154 1.944H49.71c-.193 0-2.153-.033-2.153-1.944V13.14c0-1.912 1.96-1.943 2.153-1.943h4.749c.193 0 2.154.031 2.154 1.943v4.283zm2.228-8.56c-.576-.541-1.274-.95-2.077-1.21-.776-.255-1.626-.384-2.528-.384H50.03c-.926 0-1.796.136-2.585.4-.805.272-1.51.683-2.093 1.22-.585.538-1.048 1.2-1.373 1.968-.322.762-.486 1.649-.486 2.64v3.663c0 .992.17 1.883.505 2.647.339.772.808 1.425 1.396 1.941.578.509 1.256.898 2.018 1.162.744.255 1.55.384 2.393.384h4.465c.84 0 1.655-.129 2.42-.382.777-.26 1.471-.647 2.066-1.158.6-.518 1.076-1.172 1.417-1.947.335-.767.505-1.657.505-2.647v-3.663c0-.989-.163-1.88-.485-2.651-.326-.78-.78-1.447-1.351-1.982zM31.455 8.73c.468-.405 1.053-.602 1.788-.602h6.139c1.57 0 2.3-.624 2.3-1.963 0-1.34-.73-1.964-2.3-1.964h-6.234c-.884 0-1.721.128-2.484.381-.787.26-1.482.666-2.066 1.203-.585.537-1.048 1.205-1.373 1.985-.323.77-.486 1.662-.486 2.647v6.758c0 .984.158 1.867.466 2.626.319.777.78 1.433 1.373 1.954.58.51 1.278.902 2.073 1.163.776.25 1.638.378 2.56.378h6.17c1.57 0 2.302-.624 2.302-1.963 0-1.34-.731-1.965-2.301-1.965l-6.139.001c-.744 0-1.333-.192-1.797-.584-.431-.36-.642-.922-.642-1.717V10.49c0-.797.213-1.373.651-1.76zm96.956 8.202c-.962-2.211-3.738-2.767-4.114-2.843-.21-.043-6.841-1.076-6.841-1.076-.478-.086-.964-.323-.99-.953-.007-.146.07-.86.85-.86l8.539-.001c1.568 0 2.298-.625 2.298-1.964 0-1.34-.73-1.964-2.299-1.964h-8.42c-1.643 0-2.908.45-3.76 1.338-.822.85-1.274 1.878-1.274 3.213 0 .732.168 1.482.37 1.886.205.403 1.04 2.137 4.124 2.658l6.45 1.085c.862.157 1.211.403 1.326.776.084.276.004.685-.174.877-.164.16-.443.266-.97.266h-8.031c-1.57 0-2.3.622-2.3 1.963 0 1.34.731 1.963 2.3 1.963h8.162c.815 0 1.551-.126 2.187-.379.649-.258 1.196-.616 1.628-1.066.43-.445.755-.965.969-1.547.21-.571.316-.938.316-1.556 0-.716-.112-1.283-.346-1.816zm-24.67-9.661h-.415c-1.341 0-3.439.726-4.18 1.344-.742-.618-2.84-1.344-4.18-1.344h-.413c-2.065 0-3.372.558-4.598 1.66-1.253 1.125-1.889 2.782-1.889 4.924v7.148c0 1.565.645 2.293 2.031 2.293 1.388 0 2.034-.728 2.034-2.293v-7.858c0-1.91 1.96-1.944 2.153-1.944l.676.003c.193 0 2.131.033 2.131 1.944v7.855c0 1.565.647 2.293 2.033 2.293 1.388 0 2.033-.728 2.033-2.293v-7.855c0-1.911 1.981-1.944 2.175-1.944l.676-.003c.193 0 2.11.034 2.11 1.944v7.858c0 1.565.645 2.293 2.03 2.293 1.387 0 2.035-.728 2.035-2.293v-7.148c0-2.142-.592-3.8-1.847-4.925-1.225-1.1-2.532-1.66-4.596-1.66zm-24.753 0h-.413c-1.342 0-3.44.726-4.18 1.344-.742-.618-2.841-1.344-4.181-1.344h-.415c-2.063 0-3.37.558-4.595 1.66-1.254 1.125-1.89 2.782-1.89 4.924v7.148c0 1.565.646 2.293 2.032 2.293 1.387 0 2.033-.728 2.033-2.293v-7.858c0-1.91 1.96-1.944 2.154-1.944l.674.003c.195 0 2.132.033 2.132 1.944v7.855c0 1.565.647 2.293 2.033 2.293 1.387 0 2.033-.728 2.033-2.293v-7.855c0-1.911 1.982-1.944 2.176-1.944l.675-.003c.193 0 2.109.034 2.109 1.944l.001 7.858h-.002c0 1.565.646 2.293 2.033 2.293s2.033-.728 2.033-2.293v-7.148c0-2.142-.592-3.8-1.845-4.925-1.226-1.1-2.533-1.66-4.597-1.66z" mask="url(#prefix__b)"/>
            </g>
            <circle cx="100" cy="100" r="98" stroke="#FDE8E9" stroke-width="4"/>
        </g>
        <g transform="translate(380 29)">
            <circle cx="70" cy="70" r="69" stroke="#E3E3E3" stroke-width="2"/>
            <path fill="#333" d="M55.048 55.32h3.344v-4.464h1.12v13.6h-1.12v-8.112h-3.344V55.32zm7.568-4.768v14.624h-1.12V50.552h1.12zM50.92 61.064v-9.136h1.136v8.112h1.168c1.056 0 2.432-.064 3.856-.32l.128 1.008c-1.472.288-3.168.336-4.528.336h-1.76zm25.224-10.512v14.624h-1.136V50.552h1.136zm-4.032 5.28v1.504c0 2.672-1.344 4.256-3.616 4.256-2.272 0-3.616-1.584-3.616-4.256v-1.52c0-2.672 1.344-4.24 3.616-4.24 2.272 0 3.616 1.584 3.616 4.256zm-1.104 1.312v-1.12c0-2.432-1.008-3.392-2.512-3.392s-2.512.96-2.512 3.392v1.12c0 2.432 1.008 3.408 2.512 3.408s2.512-.976 2.512-3.408zm14.632-5.36V55.8h3.44v-5.248h1.12v14.624h-1.12v-8.352h-3.44v4.464h-6.752v-9.504h1.12v3.584h4.512v-3.584h1.12zm-5.632 4.592v3.888h4.512v-3.888h-4.512zM46.572 74.552v14.624h-1.12v-8.96H41.98v-1.024h3.472v-4.64h1.12zM37.1 82.104c1.008-1.152 1.168-1.776 1.168-3.04v-3.44h1.168v3.36c0 1.232.096 1.76.96 2.752.64.736 1.584 1.696 2.784 2.784l-.736.768c-1.008-.96-1.904-1.84-2.544-2.528-.48-.512-.944-1.04-1.024-1.248h-.016c-.048.208-.656.96-1.136 1.488-.56.608-1.616 1.68-2.56 2.512l-.752-.784c1.056-.928 1.936-1.776 2.688-2.624zm23.432-7.552v14.624h-1.136V74.552h1.136zm-4.272 1.2v9.552h-6.72v-9.552h1.12v3.616h4.48v-3.616h1.12zm-5.6 4.624v3.904h4.48v-3.904h-4.48zm18.44-.544h-.016c-.128.32-.72.864-1.872 1.632-.96.64-2.272 1.424-3.424 2.048l-.608-.896c1.392-.72 2.624-1.456 3.376-1.968 1.584-1.072 1.952-1.568 1.952-3.296v-1.76h1.168v1.76c0 1.728.352 2.224 1.936 3.296.752.512 1.968 1.232 3.344 1.952l-.592.88c-1.136-.624-2.432-1.392-3.392-2.032-1.152-.768-1.728-1.296-1.872-1.616zm-6.72 6.304h13.44v.976H62.38v-.976zm24.08-5.392c-2.56 0-4.592-1.024-4.592-2.624v-.608c0-1.6 2.032-2.624 4.592-2.624 2.56 0 4.592 1.024 4.592 2.624v.608c0 1.6-2.032 2.624-4.592 2.624zm0-4.896c-1.84 0-3.504.72-3.504 1.744v.448c0 1.024 1.664 1.744 3.504 1.744s3.504-.72 3.504-1.744v-.448c0-1.024-1.664-1.744-3.504-1.744zm-6.72 6.24h13.44v.96h-5.984v3.024h-1.12v-3.024H79.74v-.96zm3.136 2.592v3.328H91.5V89h-9.76v-4.32h1.136zm18.632-1.2c2.4 0 4.432 1.04 4.432 2.72v.624c0 1.68-2.032 2.736-4.432 2.736-2.4 0-4.432-1.056-4.432-2.736V86.2c0-1.728 2.032-2.72 4.432-2.72zm-3.712-1.232c-2.256 0-3.568-1.632-3.568-3.088v-.928c0-1.456 1.312-3.088 3.568-3.088 2.256 0 3.568 1.632 3.568 3.088v.928c0 1.456-1.312 3.088-3.568 3.088zm3.712 6.352c1.712 0 3.344-.672 3.344-1.808v-.544c0-1.136-1.632-1.808-3.344-1.808s-3.344.672-3.344 1.808v.544c0 1.136 1.632 1.808 3.344 1.808zm-3.712-12.448c-1.44 0-2.48.944-2.48 2.176v.736c0 1.232 1.04 2.176 2.48 2.176s2.48-.944 2.48-2.176v-.736c0-1.232-1.04-2.176-2.48-2.176zm4.336.4h2.624v-2h1.104v8.608h-1.104v-2.304h-2.624v-.976h2.624v-2.352h-2.624v-.976z"/>
        </g>
    </g>
</svg>
